PathFileType	4	(X/Y/Z)	Run_500 04
DataRate	CameraRate	NumFrames	NumMarkers	Units	OrigDataRate	OrigDataStartFrame	OrigNumFrames
100	100	4	41	mm	100	31	125
Frame#	Time	RASI			RPSI			RTH1			RTH2			RTH3			LTH1			LTH2			LTH3			RTB1			RTB2			RTB3			LTB1			LTB2			LTB3			RCAL			RTOE			RMT5			LCAL			LTOE			LACR			RACR			CLAV			C7			RUA1			RUA2			RUA3			RLEL			RMEL			LUA1			LUA2			LUA3			LLEL			LMEL			RFAsuperior			RFAradius			RFAulna			LFAsuperior			LFAradius			LFAulna			LPSI			LASI			
		X1	Y1	Z1	X2	Y2	Z2	X3	Y3	Z3	X4	Y4	Z4	X5	Y5	Z5	X6	Y6	Z6	X7	Y7	Z7	X8	Y8	Z8	X9	Y9	Z9	X10	Y10	Z10	X11	Y11	Z11	X12	Y12	Z12	X13	Y13	Z13	X14	Y14	Z14	X15	Y15	Z15	X16	Y16	Z16	X17	Y17	Z17	X18	Y18	Z18	X19	Y19	Z19	X20	Y20	Z20	X21	Y21	Z21	X22	Y22	Z22	X23	Y23	Z23	X24	Y24	Z24	X25	Y25	Z25	X26	Y26	Z26	X27	Y27	Z27	X28	Y28	Z28	X29	Y29	Z29	X30	Y30	Z30	X31	Y31	Z31	X32	Y32	Z32	X33	Y33	Z33	X34	Y34	Z34	X35	Y35	Z35	X36	Y36	Z36	X37	Y37	Z37	X38	Y38	Z38	X39	Y39	Z39	X40	Y40	Z40	X41	Y41	Z41	

24	0.49	1123.380545	977.293666	-290.003958	966.557836	1056.081222	-379.417507	1009.908424	811.299506	-249.537472	986.427501	712.68959	-271.670791	849.127091	629.769045	-291.148691	1110.29424	886.9771490000001	-612.118934	1235.357476	837.097985	-576.161439	1249.476159	699.857631	-566.924755	719.551839	395.893802	-369.467075	614.491519	347.719166	-329.509096	584.493139	277.536495	-394.283653	1311.873595	439.755154	-493.473955	1261.018764	391.966912	-538.241834	1251.114799	312.736228	-483.063499	453.254797	307.015999	-398.360395	538.784641	88.10414900000001	-420.482283	509.306179	74.70438	-346.118921	1097.004324	207.217755	-472.124874	1331.463569	160.66418	-460.648118	1113.625914	1537.184055	-572.955655	1184.876317	1516.790215	-266.765497	1201.623255	1451.900516	-405.731419	1088.383871	1545.768012	-405.167958	1178.875104	1399.183453	-165.788711	1118.131072	1384.926066	-137.574436	1146.354554	1327.503788	-112.793142	1132.987308	1254.266759	-71.587305	1062.860214	1225.269171	-134.617769	997.208365	1521.957659	-624.71393	929.909756	1513.963825	-562.547197	883.5294699999999	1473.659797	-627.262339	814.696412	1443.996058	-634.353515	815.736003	1421.210822	-544.219484	1197.816265	1286.381293	-126.728783	1280.191006	1329.774803	-263.734838	1312.260068	1267.732564	-242.350265	849.93065	1367.656963	-660.880588	974.78486	1234.680687	-650.21953	917.054537	1196.466641	-665.531854	976.514076	1061.874465	-473.266192	1148.617322	1000.916211	-541.184024	
25	0.5	1125.610798	979.283813	-289.889811	969.199117	1059.405469	-378.370397	1010.088234	814.707585	-249.093842	984.1963919999999	716.807199	-272.427677	845.99775	636.597113	-291.803894	1111.115761	888.164201	-611.740891	1235.238277	835.358661	-576.482892	1246.807988	697.443124	-566.106643	707.770936	406.296025	-370.276932	601.806253	362.397734	-328.322463	565.638688	294.545808	-392.436767	1327.414462	437.081674	-491.912112	1283.487569	381.784041	-534.9810199999999	1283.421509	303.662611	-477.948138	442.249702	335.244372	-391.020834	497.574834	107.08784	-424.50437	466.713019	92.310332	-352.077306	1144.538607	178.916592	-463.863074	1383.181135	164.586592	-451.516858	1112.758159	1539.086062	-573.482856	1187.083592	1521.270503	-270.117669	1203.247927	1455.095542	-407.948294	1089.351102	1547.887152	-405.64399	1184.416407	1405.5153	-168.2786	1123.218831	1391.998917	-139.657759	1152.551652	1335.299505	-113.22369	1139.507433	1261.074614	-71.13352399999999	1067.017215	1231.864204	-132.119428	995.822916	1526.417162	-622.446471	930.5475730000001	1517.32657	-556.863029	881.017824	1481.424885	-621.239536	811.290251	1451.002311	-626.613276	815.886824	1425.700263	-537.485724	1203.284112	1292.206903	-128.414093	1281.012793	1335.685992	-268.363337	1312.751699	1273.02814	-248.06737	845.965185	1375.45964	-655.848198	973.5479329999999	1243.126189	-650.928061	916.044045	1204.477603	-665.396781	979.33099	1065.495023	-472.960679	1151.418038	1005.086728	-541.928854	
26	0.51	1126.885304	980.945933	-290.308985	970.2825	1062.009637	-377.396889	1011.721999	816.454582	-249.949373	985.13224	719.4186549999999	-274.042655	847.735983	638.460301	-292.043577	1109.859613	886.054263	-611.584965	1232.905811	829.805418	-577.4658889999999	1243.333745	693.009877	-567.002161	697.805582	414.18132	-371.617352	590.328626	376.771964	-327.755062	546.814128	313.940745	-391.816806	1339.304033	432.787477	-490.412191	1302.895698	371.211253	-531.501965	1312.581132	295.310095	-472.681232	428.714037	364.510184	-382.718246	461.501703	134.173738	-431.12476	431.484997	116.794908	-359.712568	1191.048644	154.28039	-454.519683	1429.488831	172.164147	-443.380677	1112.196167	1540.036485	-574.6377680000001	1189.987469	1524.164459	-272.586277	1205.088646	1457.491702	-409.678294	1090.785775	1549.331089	-406.183061	1188.457635	1410.408696	-170.15462	1126.653644	1397.7293	-141.514527	1156.845344	1341.211378	-113.470642	1143.57569	1266.058828	-70.64368899999999	1069.598037	1237.472966	-130.503678	994.6688370000001	1527.867668	-621.700734	931.335921	1518.649245	-553.158806	879.7201219999999	1485.645841	-616.342359	809.295958	1454.50359	-620.35008	816.718029	1426.892889	-532.3865	1207.496409	1294.950207	-129.311167	1282.679079	1336.814624	-271.458578	1313.30102	1273.478335	-251.470028	843.947612	1379.907894	-652.078331	974.50999	1248.834193	-651.862295	917.412633	1209.528174	-665.951868	980.701901	1068.206407	-472.924264	1152.747588	1008.326754	-543.033182	
27	0.52	1127.66705	982.567244	-291.154438	970.032704	1063.447705	-376.754577	1014.744463	816.371699	-252.088461	988.925803	720.2233680000001	-276.89231	853.5852630000001	635.9527409999999	-292.569068	1107.478503	882.162331	-611.701353	1229.399131	821.761941	-578.254646	1238.290846	686.315146	-568.918588	689.853101	420.810104	-373.030606	580.370899	392.16523	-327.283016	529.647285	336.099888	-391.748357	1347.436186	427.280245	-488.561102	1318.639333	360.981759	-527.961031	1337.549453	288.215532	-467.554155	414.560279	395.308151	-374.484854	432.369311	167.220049	-438.127842	404.149549	146.794273	-367.011559	1234.246483	134.674366	-445.463664	1468.51109	182.839445	-436.057487	1112.347264	1540.164088	-576.5220880000001	1193.553577	1525.353223	-274.058821	1206.97581	1458.931704	-410.860073	1092.745124	1550.178484	-406.914915	1191.144556	1413.535469	-171.145595	1129.098616	1401.515113	-142.776377	1159.215011	1344.715495	-113.508669	1145.046087	1269.093479	-70.248147	1070.056257	1242.018181	-129.609213	993.964921	1526.659008	-622.4557	932.15541	1517.97607	-551.680638	879.674432	1485.314339	-613.0836859999999	808.926003	1454.091417	-615.96214	818.495106	1424.587972	-529.089555	1210.001034	1294.770572	-129.4962	1285.149814	1333.2141	-273.088838	1313.7509	1269.101019	-252.561194	844.3637179999999	1380.727522	-649.7939710000001	977.969878	1251.54737	-653.103142	921.458049	1211.395839	-667.37301	980.6029140000001	1069.537299	-472.861491	1152.587398	1010.169103	-544.178617	
